M48
;DRILL file {KiCad 4.0.7-e2-6376~58~ubuntu17.04.1} date Tue Sep  5 17:35:46 2017
;FORMAT={-:-/ absolute / inch / decimal}
FMAT,2
INCH,TZ
T1C0.016
T2C0.039
T3C0.035
%
G90
G05
M72
T1
X5.489Y-3.534
X5.612Y-3.805
X5.667Y-3.805
X5.726Y-3.804
X5.75Y-3.726
X5.783Y-3.803
X6.146Y-3.445
X6.152Y-3.594
X6.322Y-3.58
X6.337Y-3.436
T2
X5.4Y-4.05
X5.5Y-4.05
X6.195Y-3.736
X6.195Y-3.836
X6.195Y-3.936
X6.195Y-4.036
X6.249Y-3.099
X6.249Y-3.199
X6.249Y-3.299
X6.249Y-3.399
X6.249Y-3.499
X6.295Y-3.736
X6.295Y-3.836
X6.295Y-3.936
X6.295Y-4.036
T3
X5.7634Y-3.9921
X5.9366Y-3.9921
T0
M30
