G04 #@! TF.FileFunction,Legend,Bot*
%FSLAX46Y46*%
G04 Gerber Fmt 4.6, Leading zero omitted, Abs format (unit mm)*
G04 Created by KiCad (PCBNEW 4.0.7-e2-6376~58~ubuntu17.04.1) date Tue Sep  5 17:35:11 2017*
%MOMM*%
%LPD*%
G01*
G04 APERTURE LIST*
%ADD10C,0.100000*%
%ADD11C,0.120000*%
%ADD12C,0.150000*%
G04 APERTURE END LIST*
D10*
D11*
X152440000Y-105850000D02*
X144740000Y-105850000D01*
X152440000Y-106850000D02*
X144740000Y-106850000D01*
X144740000Y-106850000D02*
X144740000Y-97650000D01*
X144740000Y-97650000D02*
X152440000Y-97650000D01*
X152440000Y-97650000D02*
X152440000Y-106850000D01*
X141693000Y-91803600D02*
X141693000Y-92803600D01*
X139993000Y-92803600D02*
X139993000Y-91803600D01*
X150280000Y-90670000D02*
X150280000Y-89670000D01*
X151980000Y-89670000D02*
X151980000Y-90670000D01*
X142640000Y-88260000D02*
X143900000Y-88260000D01*
X149460000Y-88260000D02*
X148200000Y-88260000D01*
X142640000Y-92020000D02*
X142640000Y-88260000D01*
X149460000Y-94270000D02*
X149460000Y-88260000D01*
D12*
X147966181Y-102765267D02*
X148680467Y-102765267D01*
X148823324Y-102717647D01*
X148918562Y-102622409D01*
X148966181Y-102479552D01*
X148966181Y-102384314D01*
X147966181Y-103146219D02*
X147966181Y-103765267D01*
X148347133Y-103431933D01*
X148347133Y-103574791D01*
X148394752Y-103670029D01*
X148442371Y-103717648D01*
X148537610Y-103765267D01*
X148775705Y-103765267D01*
X148870943Y-103717648D01*
X148918562Y-103670029D01*
X148966181Y-103574791D01*
X148966181Y-103289076D01*
X148918562Y-103193838D01*
X148870943Y-103146219D01*
X139549143Y-92289334D02*
X139596762Y-92241715D01*
X139644381Y-92098858D01*
X139644381Y-92003620D01*
X139596762Y-91860762D01*
X139501524Y-91765524D01*
X139406286Y-91717905D01*
X139215810Y-91670286D01*
X139072952Y-91670286D01*
X138882476Y-91717905D01*
X138787238Y-91765524D01*
X138692000Y-91860762D01*
X138644381Y-92003620D01*
X138644381Y-92098858D01*
X138692000Y-92241715D01*
X138739619Y-92289334D01*
X139644381Y-93241715D02*
X139644381Y-92670286D01*
X139644381Y-92956000D02*
X138644381Y-92956000D01*
X138787238Y-92860762D01*
X138882476Y-92765524D01*
X138930095Y-92670286D01*
X152757143Y-89749334D02*
X152804762Y-89701715D01*
X152852381Y-89558858D01*
X152852381Y-89463620D01*
X152804762Y-89320762D01*
X152709524Y-89225524D01*
X152614286Y-89177905D01*
X152423810Y-89130286D01*
X152280952Y-89130286D01*
X152090476Y-89177905D01*
X151995238Y-89225524D01*
X151900000Y-89320762D01*
X151852381Y-89463620D01*
X151852381Y-89558858D01*
X151900000Y-89701715D01*
X151947619Y-89749334D01*
X151947619Y-90130286D02*
X151900000Y-90177905D01*
X151852381Y-90273143D01*
X151852381Y-90511239D01*
X151900000Y-90606477D01*
X151947619Y-90654096D01*
X152042857Y-90701715D01*
X152138095Y-90701715D01*
X152280952Y-90654096D01*
X152852381Y-90082667D01*
X152852381Y-90701715D01*
X148296381Y-86614095D02*
X149105905Y-86614095D01*
X149201143Y-86661714D01*
X149248762Y-86709333D01*
X149296381Y-86804571D01*
X149296381Y-86995048D01*
X149248762Y-87090286D01*
X149201143Y-87137905D01*
X149105905Y-87185524D01*
X148296381Y-87185524D01*
X149296381Y-88185524D02*
X149296381Y-87614095D01*
X149296381Y-87899809D02*
X148296381Y-87899809D01*
X148439238Y-87804571D01*
X148534476Y-87709333D01*
X148582095Y-87614095D01*
M02*
