G04 #@! TF.FileFunction,Copper,L1,Top,Signal*
%FSLAX46Y46*%
G04 Gerber Fmt 4.6, Leading zero omitted, Abs format (unit mm)*
G04 Created by KiCad (PCBNEW 4.0.7-e2-6376~58~ubuntu17.04.1) date Tue Sep  5 17:35:11 2017*
%MOMM*%
%LPD*%
G01*
G04 APERTURE LIST*
%ADD10C,0.100000*%
%ADD11R,2.500000X1.100000*%
%ADD12R,1.100000X2.500000*%
%ADD13R,1.700000X1.700000*%
%ADD14O,1.700000X1.700000*%
%ADD15C,0.600000*%
%ADD16C,0.160000*%
%ADD17C,0.250000*%
%ADD18C,0.254000*%
G04 APERTURE END LIST*
D10*
D11*
X137730000Y-83820000D03*
X137730000Y-85820000D03*
X137730000Y-87820000D03*
X137730000Y-89820000D03*
X137730000Y-91820000D03*
X137730000Y-93820000D03*
X137730000Y-95820000D03*
X137730000Y-97820000D03*
X153130000Y-97820000D03*
X153130000Y-95820000D03*
X153130000Y-93820000D03*
X153130000Y-91820000D03*
X153130000Y-89820000D03*
X153130000Y-87820000D03*
X153130000Y-85820000D03*
X153130000Y-83820000D03*
D12*
X140420000Y-99520000D03*
X142420000Y-99520000D03*
X144420000Y-99520000D03*
X146420000Y-99520000D03*
X148420000Y-99520000D03*
X150420000Y-99520000D03*
D13*
X159893000Y-102514400D03*
D14*
X157353000Y-102514400D03*
X159893000Y-99974400D03*
X157353000Y-99974400D03*
X159893000Y-97434400D03*
X157353000Y-97434400D03*
X159893000Y-94894400D03*
X157353000Y-94894400D03*
D13*
X158724600Y-88874600D03*
D14*
X158724600Y-86334600D03*
X158724600Y-83794600D03*
X158724600Y-81254600D03*
X158724600Y-78714600D03*
D13*
X139700000Y-102870000D03*
D14*
X137160000Y-102870000D03*
D15*
X142544800Y-96647000D03*
X143941800Y-96647000D03*
X145440400Y-96621600D03*
X146888200Y-96596200D03*
X160959800Y-87274400D03*
X156108400Y-87503000D03*
X146050000Y-94640400D03*
X160578800Y-90932000D03*
X156260800Y-91287600D03*
X139420600Y-89763600D03*
D16*
X143941800Y-96647000D02*
X142544800Y-96647000D01*
X146862800Y-96621600D02*
X145440400Y-96621600D01*
X146888200Y-96596200D02*
X146862800Y-96621600D01*
X158724600Y-86334600D02*
X160020000Y-86334600D01*
X160020000Y-86334600D02*
X160959800Y-87274400D01*
D17*
X138430000Y-97820000D02*
X139314400Y-97820000D01*
X142494000Y-94640400D02*
X146050000Y-94640400D01*
X139314400Y-97820000D02*
X142494000Y-94640400D01*
D16*
X152430000Y-95820000D02*
X154367000Y-95820000D01*
X154367000Y-95820000D02*
X155016200Y-96469200D01*
X155016200Y-96469200D02*
X155016200Y-98755200D01*
X155016200Y-98755200D02*
X156235400Y-99974400D01*
X156235400Y-99974400D02*
X157353000Y-99974400D01*
D17*
X139421600Y-91820000D02*
X138430000Y-91820000D01*
X142417800Y-88823800D02*
X139421600Y-91820000D01*
X155270200Y-88823800D02*
X142417800Y-88823800D01*
X157175200Y-90728800D02*
X155270200Y-88823800D01*
X160375600Y-90728800D02*
X157175200Y-90728800D01*
X160578800Y-90932000D02*
X160375600Y-90728800D01*
D16*
X157353000Y-97434400D02*
X157353000Y-97332800D01*
X157353000Y-97332800D02*
X156006800Y-95986600D01*
X156006800Y-95986600D02*
X156006800Y-94335600D01*
X156006800Y-94335600D02*
X154508200Y-92837000D01*
X154508200Y-92837000D02*
X142697200Y-92837000D01*
X142697200Y-92837000D02*
X139714200Y-95820000D01*
X139714200Y-95820000D02*
X138430000Y-95820000D01*
D17*
X156260800Y-91287600D02*
X155803600Y-90830400D01*
X155803600Y-90830400D02*
X142417800Y-90830400D01*
X142417800Y-90830400D02*
X139428200Y-93820000D01*
X139428200Y-93820000D02*
X138430000Y-93820000D01*
X158724600Y-83794600D02*
X161569400Y-83794600D01*
X154735800Y-91820000D02*
X152430000Y-91820000D01*
X155346400Y-92430600D02*
X154735800Y-91820000D01*
X161112200Y-92430600D02*
X155346400Y-92430600D01*
X162636200Y-90906600D02*
X161112200Y-92430600D01*
X162636200Y-84861400D02*
X162636200Y-90906600D01*
X161569400Y-83794600D02*
X162636200Y-84861400D01*
X152430000Y-85820000D02*
X154159200Y-85820000D01*
X154159200Y-85820000D02*
X158724600Y-81254600D01*
X152430000Y-83820000D02*
X153619200Y-83820000D01*
X153619200Y-83820000D02*
X158724600Y-78714600D01*
D16*
X139364200Y-89820000D02*
X138430000Y-89820000D01*
X139420600Y-89763600D02*
X139364200Y-89820000D01*
D18*
G36*
X153823919Y-82834635D02*
X151880000Y-82834635D01*
X151721763Y-82864409D01*
X151576433Y-82957927D01*
X151478936Y-83100619D01*
X151444635Y-83270000D01*
X151444635Y-84370000D01*
X151474409Y-84528237D01*
X151567927Y-84673567D01*
X151710619Y-84771064D01*
X151880000Y-84805365D01*
X154380000Y-84805365D01*
X154396246Y-84802308D01*
X154363919Y-84834635D01*
X151880000Y-84834635D01*
X151721763Y-84864409D01*
X151576433Y-84957927D01*
X151478936Y-85100619D01*
X151444635Y-85270000D01*
X151444635Y-86370000D01*
X151474409Y-86528237D01*
X151567927Y-86673567D01*
X151710619Y-86771064D01*
X151880000Y-86805365D01*
X154380000Y-86805365D01*
X154538237Y-86775591D01*
X154668932Y-86691490D01*
X157283124Y-86691490D01*
X157452955Y-87101524D01*
X157843242Y-87529783D01*
X157969836Y-87589235D01*
X157874600Y-87589235D01*
X157716363Y-87619009D01*
X157571033Y-87712527D01*
X157473536Y-87855219D01*
X157439235Y-88024600D01*
X157439235Y-89724600D01*
X157469009Y-89882837D01*
X157562527Y-90028167D01*
X157705219Y-90125664D01*
X157874600Y-90159965D01*
X159574600Y-90159965D01*
X159732837Y-90130191D01*
X159878167Y-90036673D01*
X159975664Y-89893981D01*
X160009965Y-89724600D01*
X160009965Y-88024600D01*
X159980191Y-87866363D01*
X159886673Y-87721033D01*
X159743981Y-87623536D01*
X159574600Y-87589235D01*
X159479364Y-87589235D01*
X159605958Y-87529783D01*
X159996245Y-87101524D01*
X160166076Y-86691490D01*
X160044755Y-86461600D01*
X158851600Y-86461600D01*
X158851600Y-86481600D01*
X158597600Y-86481600D01*
X158597600Y-86461600D01*
X157404445Y-86461600D01*
X157283124Y-86691490D01*
X154668932Y-86691490D01*
X154683567Y-86682073D01*
X154781064Y-86539381D01*
X154815365Y-86370000D01*
X154815365Y-85944481D01*
X157652399Y-83107447D01*
X157519788Y-83305913D01*
X157422582Y-83794600D01*
X157519788Y-84283287D01*
X157796607Y-84697575D01*
X158204183Y-84969909D01*
X157843242Y-85139417D01*
X157452955Y-85567676D01*
X157283124Y-85977710D01*
X157404445Y-86207600D01*
X158597600Y-86207600D01*
X158597600Y-86187600D01*
X158851600Y-86187600D01*
X158851600Y-86207600D01*
X160044755Y-86207600D01*
X160166076Y-85977710D01*
X159996245Y-85567676D01*
X159605958Y-85139417D01*
X159245017Y-84969909D01*
X159652593Y-84697575D01*
X159887108Y-84346600D01*
X161340754Y-84346600D01*
X162084200Y-85090046D01*
X162084200Y-90677954D01*
X160883554Y-91878600D01*
X156697800Y-91878600D01*
X156876761Y-91699950D01*
X156987674Y-91432844D01*
X156987839Y-91243532D01*
X157175200Y-91280800D01*
X159936306Y-91280800D01*
X159962120Y-91343275D01*
X160166450Y-91547961D01*
X160433556Y-91658874D01*
X160722775Y-91659126D01*
X160990075Y-91548680D01*
X161194761Y-91344350D01*
X161305674Y-91077244D01*
X161305926Y-90788025D01*
X161195480Y-90520725D01*
X160991150Y-90316039D01*
X160724044Y-90205126D01*
X160517100Y-90204946D01*
X160375600Y-90176800D01*
X157403846Y-90176800D01*
X155660523Y-88433477D01*
X155481442Y-88313818D01*
X155270200Y-88271800D01*
X154815365Y-88271800D01*
X154815365Y-87270000D01*
X154785591Y-87111763D01*
X154692073Y-86966433D01*
X154549381Y-86868936D01*
X154380000Y-86834635D01*
X151880000Y-86834635D01*
X151721763Y-86864409D01*
X151576433Y-86957927D01*
X151478936Y-87100619D01*
X151444635Y-87270000D01*
X151444635Y-88271800D01*
X142417800Y-88271800D01*
X142206558Y-88313818D01*
X142027477Y-88433477D01*
X139371339Y-91089615D01*
X139292073Y-90966433D01*
X139149381Y-90868936D01*
X138980000Y-90834635D01*
X136480000Y-90834635D01*
X136321763Y-90864409D01*
X136176433Y-90957927D01*
X136078936Y-91100619D01*
X136044635Y-91270000D01*
X136044635Y-92370000D01*
X136074409Y-92528237D01*
X136167927Y-92673567D01*
X136310619Y-92771064D01*
X136480000Y-92805365D01*
X138980000Y-92805365D01*
X139138237Y-92775591D01*
X139283567Y-92682073D01*
X139381064Y-92539381D01*
X139414960Y-92372000D01*
X139421600Y-92372000D01*
X139632842Y-92329982D01*
X139811923Y-92210323D01*
X142646446Y-89375800D01*
X151444635Y-89375800D01*
X151444635Y-90278400D01*
X142417800Y-90278400D01*
X142206558Y-90320418D01*
X142027477Y-90440077D01*
X139373923Y-93093631D01*
X139292073Y-92966433D01*
X139149381Y-92868936D01*
X138980000Y-92834635D01*
X136480000Y-92834635D01*
X136321763Y-92864409D01*
X136176433Y-92957927D01*
X136078936Y-93100619D01*
X136044635Y-93270000D01*
X136044635Y-94370000D01*
X136074409Y-94528237D01*
X136167927Y-94673567D01*
X136310619Y-94771064D01*
X136480000Y-94805365D01*
X138980000Y-94805365D01*
X139138237Y-94775591D01*
X139283567Y-94682073D01*
X139381064Y-94539381D01*
X139414960Y-94372000D01*
X139428200Y-94372000D01*
X139639442Y-94329982D01*
X139818523Y-94210323D01*
X142646446Y-91382400D01*
X151444635Y-91382400D01*
X151444635Y-92330000D01*
X142697200Y-92330000D01*
X142503179Y-92368593D01*
X142410380Y-92430600D01*
X142338697Y-92478497D01*
X139504194Y-95313000D01*
X139415365Y-95313000D01*
X139415365Y-95270000D01*
X139385591Y-95111763D01*
X139292073Y-94966433D01*
X139149381Y-94868936D01*
X138980000Y-94834635D01*
X136480000Y-94834635D01*
X136321763Y-94864409D01*
X136176433Y-94957927D01*
X136078936Y-95100619D01*
X136044635Y-95270000D01*
X136044635Y-96370000D01*
X136074409Y-96528237D01*
X136167927Y-96673567D01*
X136310619Y-96771064D01*
X136480000Y-96805365D01*
X138980000Y-96805365D01*
X139138237Y-96775591D01*
X139283567Y-96682073D01*
X139381064Y-96539381D01*
X139415365Y-96370000D01*
X139415365Y-96327000D01*
X139714200Y-96327000D01*
X139908221Y-96288407D01*
X140072703Y-96178503D01*
X142907206Y-93344000D01*
X151444635Y-93344000D01*
X151444635Y-94370000D01*
X151474409Y-94528237D01*
X151567927Y-94673567D01*
X151710619Y-94771064D01*
X151880000Y-94805365D01*
X154380000Y-94805365D01*
X154538237Y-94775591D01*
X154683567Y-94682073D01*
X154781064Y-94539381D01*
X154815365Y-94370000D01*
X154815365Y-93861171D01*
X155499800Y-94545606D01*
X155499800Y-95986600D01*
X155538393Y-96180621D01*
X155601575Y-96275179D01*
X155648297Y-96345103D01*
X156188530Y-96885336D01*
X156148188Y-96945713D01*
X156050982Y-97434400D01*
X156148188Y-97923087D01*
X156425007Y-98337375D01*
X156839295Y-98614194D01*
X157292791Y-98704400D01*
X156839295Y-98794606D01*
X156425007Y-99071425D01*
X156274572Y-99296566D01*
X155523200Y-98545194D01*
X155523200Y-96469200D01*
X155484607Y-96275179D01*
X155374703Y-96110697D01*
X154815365Y-95551359D01*
X154815365Y-95270000D01*
X154785591Y-95111763D01*
X154692073Y-94966433D01*
X154549381Y-94868936D01*
X154380000Y-94834635D01*
X151880000Y-94834635D01*
X151721763Y-94864409D01*
X151576433Y-94957927D01*
X151478936Y-95100619D01*
X151444635Y-95270000D01*
X151444635Y-96370000D01*
X151474409Y-96528237D01*
X151567927Y-96673567D01*
X151602897Y-96697461D01*
X151520302Y-96731673D01*
X151341673Y-96910301D01*
X151245000Y-97143690D01*
X151245000Y-97534250D01*
X151403750Y-97693000D01*
X153003000Y-97693000D01*
X153003000Y-97673000D01*
X153257000Y-97673000D01*
X153257000Y-97693000D01*
X153277000Y-97693000D01*
X153277000Y-97947000D01*
X153257000Y-97947000D01*
X153257000Y-98846250D01*
X153415750Y-99005000D01*
X154506309Y-99005000D01*
X154567992Y-98979450D01*
X154585064Y-99005000D01*
X154657697Y-99113703D01*
X155876897Y-100332903D01*
X156041379Y-100442807D01*
X156148932Y-100464201D01*
X156425007Y-100877375D01*
X156839295Y-101154194D01*
X157292791Y-101244400D01*
X156839295Y-101334606D01*
X156425007Y-101611425D01*
X156148188Y-102025713D01*
X156050982Y-102514400D01*
X156148188Y-103003087D01*
X156425007Y-103417375D01*
X156839295Y-103694194D01*
X157327982Y-103791400D01*
X157378018Y-103791400D01*
X157866705Y-103694194D01*
X158280993Y-103417375D01*
X158408000Y-103227296D01*
X158408000Y-103490710D01*
X158504673Y-103724099D01*
X158683302Y-103902727D01*
X158916691Y-103999400D01*
X159607250Y-103999400D01*
X159766000Y-103840650D01*
X159766000Y-102641400D01*
X160020000Y-102641400D01*
X160020000Y-103840650D01*
X160178750Y-103999400D01*
X160869309Y-103999400D01*
X161102698Y-103902727D01*
X161281327Y-103724099D01*
X161378000Y-103490710D01*
X161378000Y-102800150D01*
X161219250Y-102641400D01*
X160020000Y-102641400D01*
X159766000Y-102641400D01*
X159746000Y-102641400D01*
X159746000Y-102387400D01*
X159766000Y-102387400D01*
X159766000Y-102367400D01*
X160020000Y-102367400D01*
X160020000Y-102387400D01*
X161219250Y-102387400D01*
X161378000Y-102228650D01*
X161378000Y-101538090D01*
X161281327Y-101304701D01*
X161102698Y-101126073D01*
X160869309Y-101029400D01*
X160593472Y-101029400D01*
X160820993Y-100877375D01*
X161097812Y-100463087D01*
X161195018Y-99974400D01*
X161097812Y-99485713D01*
X160820993Y-99071425D01*
X160406705Y-98794606D01*
X159953209Y-98704400D01*
X160406705Y-98614194D01*
X160820993Y-98337375D01*
X161097812Y-97923087D01*
X161195018Y-97434400D01*
X161097812Y-96945713D01*
X160820993Y-96531425D01*
X160406705Y-96254606D01*
X159953209Y-96164400D01*
X160406705Y-96074194D01*
X160820993Y-95797375D01*
X161097812Y-95383087D01*
X161195018Y-94894400D01*
X161097812Y-94405713D01*
X160820993Y-93991425D01*
X160406705Y-93714606D01*
X159918018Y-93617400D01*
X159867982Y-93617400D01*
X159379295Y-93714606D01*
X158965007Y-93991425D01*
X158688188Y-94405713D01*
X158623000Y-94733435D01*
X158557812Y-94405713D01*
X158280993Y-93991425D01*
X157866705Y-93714606D01*
X157378018Y-93617400D01*
X157327982Y-93617400D01*
X156839295Y-93714606D01*
X156425007Y-93991425D01*
X156399942Y-94028937D01*
X156365303Y-93977097D01*
X155370806Y-92982600D01*
X161112200Y-92982600D01*
X161323442Y-92940582D01*
X161502523Y-92820923D01*
X163026523Y-91296923D01*
X163074000Y-91225869D01*
X163074000Y-105162000D01*
X135630000Y-105162000D01*
X135630000Y-103226892D01*
X135718514Y-103226892D01*
X135964817Y-103751358D01*
X136393076Y-104141645D01*
X136803110Y-104311476D01*
X137033000Y-104190155D01*
X137033000Y-102997000D01*
X135839181Y-102997000D01*
X135718514Y-103226892D01*
X135630000Y-103226892D01*
X135630000Y-102513108D01*
X135718514Y-102513108D01*
X135839181Y-102743000D01*
X137033000Y-102743000D01*
X137033000Y-101549845D01*
X137287000Y-101549845D01*
X137287000Y-102743000D01*
X137307000Y-102743000D01*
X137307000Y-102997000D01*
X137287000Y-102997000D01*
X137287000Y-104190155D01*
X137516890Y-104311476D01*
X137926924Y-104141645D01*
X138355183Y-103751358D01*
X138414635Y-103624764D01*
X138414635Y-103720000D01*
X138444409Y-103878237D01*
X138537927Y-104023567D01*
X138680619Y-104121064D01*
X138850000Y-104155365D01*
X140550000Y-104155365D01*
X140708237Y-104125591D01*
X140853567Y-104032073D01*
X140951064Y-103889381D01*
X140985365Y-103720000D01*
X140985365Y-102020000D01*
X140955591Y-101861763D01*
X140862073Y-101716433D01*
X140719381Y-101618936D01*
X140550000Y-101584635D01*
X138850000Y-101584635D01*
X138691763Y-101614409D01*
X138546433Y-101707927D01*
X138448936Y-101850619D01*
X138414635Y-102020000D01*
X138414635Y-102115236D01*
X138355183Y-101988642D01*
X137926924Y-101598355D01*
X137516890Y-101428524D01*
X137287000Y-101549845D01*
X137033000Y-101549845D01*
X136803110Y-101428524D01*
X136393076Y-101598355D01*
X135964817Y-101988642D01*
X135718514Y-102513108D01*
X135630000Y-102513108D01*
X135630000Y-97270000D01*
X136044635Y-97270000D01*
X136044635Y-98370000D01*
X136074409Y-98528237D01*
X136167927Y-98673567D01*
X136310619Y-98771064D01*
X136480000Y-98805365D01*
X138980000Y-98805365D01*
X139138237Y-98775591D01*
X139283567Y-98682073D01*
X139381064Y-98539381D01*
X139415365Y-98370000D01*
X139415365Y-98351917D01*
X139434635Y-98348084D01*
X139434635Y-100770000D01*
X139464409Y-100928237D01*
X139557927Y-101073567D01*
X139700619Y-101171064D01*
X139870000Y-101205365D01*
X140970000Y-101205365D01*
X141128237Y-101175591D01*
X141273567Y-101082073D01*
X141371064Y-100939381D01*
X141405365Y-100770000D01*
X141405365Y-98270000D01*
X141434635Y-98270000D01*
X141434635Y-100770000D01*
X141464409Y-100928237D01*
X141557927Y-101073567D01*
X141700619Y-101171064D01*
X141870000Y-101205365D01*
X142970000Y-101205365D01*
X143128237Y-101175591D01*
X143273567Y-101082073D01*
X143371064Y-100939381D01*
X143405365Y-100770000D01*
X143405365Y-98270000D01*
X143434635Y-98270000D01*
X143434635Y-100770000D01*
X143464409Y-100928237D01*
X143557927Y-101073567D01*
X143700619Y-101171064D01*
X143870000Y-101205365D01*
X144970000Y-101205365D01*
X145128237Y-101175591D01*
X145273567Y-101082073D01*
X145371064Y-100939381D01*
X145405365Y-100770000D01*
X145405365Y-98270000D01*
X145434635Y-98270000D01*
X145434635Y-100770000D01*
X145464409Y-100928237D01*
X145557927Y-101073567D01*
X145571963Y-101083158D01*
X145513153Y-101224789D01*
X145512849Y-101573681D01*
X145646082Y-101896131D01*
X145892571Y-102143051D01*
X146214789Y-102276847D01*
X146563681Y-102277151D01*
X146886131Y-102143918D01*
X147133051Y-101897429D01*
X147266847Y-101575211D01*
X147267151Y-101226319D01*
X147221416Y-101115631D01*
X147273567Y-101082073D01*
X147371064Y-100939381D01*
X147405365Y-100770000D01*
X147405365Y-98270000D01*
X147434635Y-98270000D01*
X147434635Y-100770000D01*
X147464409Y-100928237D01*
X147557927Y-101073567D01*
X147700619Y-101171064D01*
X147870000Y-101205365D01*
X148970000Y-101205365D01*
X149128237Y-101175591D01*
X149273567Y-101082073D01*
X149371064Y-100939381D01*
X149405365Y-100770000D01*
X149405365Y-98270000D01*
X149434635Y-98270000D01*
X149434635Y-100770000D01*
X149464409Y-100928237D01*
X149557927Y-101073567D01*
X149700619Y-101171064D01*
X149870000Y-101205365D01*
X149921219Y-101205365D01*
X149913153Y-101224789D01*
X149912849Y-101573681D01*
X150046082Y-101896131D01*
X150292571Y-102143051D01*
X150614789Y-102276847D01*
X150963681Y-102277151D01*
X151286131Y-102143918D01*
X151533051Y-101897429D01*
X151666847Y-101575211D01*
X151667151Y-101226319D01*
X151533918Y-100903869D01*
X151404508Y-100774233D01*
X151405365Y-100770000D01*
X151405365Y-98793391D01*
X151520302Y-98908327D01*
X151753691Y-99005000D01*
X152844250Y-99005000D01*
X153003000Y-98846250D01*
X153003000Y-97947000D01*
X151403750Y-97947000D01*
X151322105Y-98028645D01*
X151282073Y-97966433D01*
X151139381Y-97868936D01*
X150970000Y-97834635D01*
X149870000Y-97834635D01*
X149711763Y-97864409D01*
X149566433Y-97957927D01*
X149468936Y-98100619D01*
X149434635Y-98270000D01*
X149405365Y-98270000D01*
X149375591Y-98111763D01*
X149282073Y-97966433D01*
X149139381Y-97868936D01*
X148970000Y-97834635D01*
X147870000Y-97834635D01*
X147711763Y-97864409D01*
X147566433Y-97957927D01*
X147468936Y-98100619D01*
X147434635Y-98270000D01*
X147405365Y-98270000D01*
X147375591Y-98111763D01*
X147282073Y-97966433D01*
X147139381Y-97868936D01*
X146970000Y-97834635D01*
X145870000Y-97834635D01*
X145711763Y-97864409D01*
X145566433Y-97957927D01*
X145468936Y-98100619D01*
X145434635Y-98270000D01*
X145405365Y-98270000D01*
X145375591Y-98111763D01*
X145282073Y-97966433D01*
X145139381Y-97868936D01*
X144970000Y-97834635D01*
X143870000Y-97834635D01*
X143711763Y-97864409D01*
X143566433Y-97957927D01*
X143468936Y-98100619D01*
X143434635Y-98270000D01*
X143405365Y-98270000D01*
X143375591Y-98111763D01*
X143282073Y-97966433D01*
X143139381Y-97868936D01*
X142970000Y-97834635D01*
X141870000Y-97834635D01*
X141711763Y-97864409D01*
X141566433Y-97957927D01*
X141468936Y-98100619D01*
X141434635Y-98270000D01*
X141405365Y-98270000D01*
X141375591Y-98111763D01*
X141282073Y-97966433D01*
X141139381Y-97868936D01*
X140970000Y-97834635D01*
X140080411Y-97834635D01*
X142722646Y-95192400D01*
X145573800Y-95192400D01*
X145637650Y-95256361D01*
X145904756Y-95367274D01*
X146193975Y-95367526D01*
X146461275Y-95257080D01*
X146665961Y-95052750D01*
X146776874Y-94785644D01*
X146777126Y-94496425D01*
X146666680Y-94229125D01*
X146462350Y-94024439D01*
X146195244Y-93913526D01*
X145906025Y-93913274D01*
X145638725Y-94023720D01*
X145573932Y-94088400D01*
X142494000Y-94088400D01*
X142282759Y-94130418D01*
X142163173Y-94210323D01*
X142103677Y-94250077D01*
X139329366Y-97024388D01*
X139292073Y-96966433D01*
X139149381Y-96868936D01*
X138980000Y-96834635D01*
X136480000Y-96834635D01*
X136321763Y-96864409D01*
X136176433Y-96957927D01*
X136078936Y-97100619D01*
X136044635Y-97270000D01*
X135630000Y-97270000D01*
X135630000Y-89270000D01*
X136044635Y-89270000D01*
X136044635Y-90370000D01*
X136074409Y-90528237D01*
X136167927Y-90673567D01*
X136310619Y-90771064D01*
X136480000Y-90805365D01*
X138980000Y-90805365D01*
X139138237Y-90775591D01*
X139283567Y-90682073D01*
X139381064Y-90539381D01*
X139390948Y-90490575D01*
X139564575Y-90490726D01*
X139831875Y-90380280D01*
X140036561Y-90175950D01*
X140147474Y-89908844D01*
X140147726Y-89619625D01*
X140037280Y-89352325D01*
X139832950Y-89147639D01*
X139565844Y-89036726D01*
X139337177Y-89036527D01*
X139292073Y-88966433D01*
X139149381Y-88868936D01*
X138980000Y-88834635D01*
X136480000Y-88834635D01*
X136321763Y-88864409D01*
X136176433Y-88957927D01*
X136078936Y-89100619D01*
X136044635Y-89270000D01*
X135630000Y-89270000D01*
X135630000Y-87270000D01*
X136044635Y-87270000D01*
X136044635Y-88370000D01*
X136074409Y-88528237D01*
X136167927Y-88673567D01*
X136310619Y-88771064D01*
X136480000Y-88805365D01*
X138980000Y-88805365D01*
X139138237Y-88775591D01*
X139283567Y-88682073D01*
X139381064Y-88539381D01*
X139415365Y-88370000D01*
X139415365Y-87270000D01*
X139385591Y-87111763D01*
X139292073Y-86966433D01*
X139149381Y-86868936D01*
X138980000Y-86834635D01*
X136480000Y-86834635D01*
X136321763Y-86864409D01*
X136176433Y-86957927D01*
X136078936Y-87100619D01*
X136044635Y-87270000D01*
X135630000Y-87270000D01*
X135630000Y-85270000D01*
X136044635Y-85270000D01*
X136044635Y-86370000D01*
X136074409Y-86528237D01*
X136167927Y-86673567D01*
X136310619Y-86771064D01*
X136480000Y-86805365D01*
X138980000Y-86805365D01*
X139138237Y-86775591D01*
X139283567Y-86682073D01*
X139381064Y-86539381D01*
X139415365Y-86370000D01*
X139415365Y-85270000D01*
X139385591Y-85111763D01*
X139292073Y-84966433D01*
X139149381Y-84868936D01*
X138980000Y-84834635D01*
X136480000Y-84834635D01*
X136321763Y-84864409D01*
X136176433Y-84957927D01*
X136078936Y-85100619D01*
X136044635Y-85270000D01*
X135630000Y-85270000D01*
X135630000Y-83270000D01*
X136044635Y-83270000D01*
X136044635Y-84370000D01*
X136074409Y-84528237D01*
X136167927Y-84673567D01*
X136310619Y-84771064D01*
X136480000Y-84805365D01*
X138980000Y-84805365D01*
X139138237Y-84775591D01*
X139283567Y-84682073D01*
X139381064Y-84539381D01*
X139415365Y-84370000D01*
X139415365Y-83270000D01*
X139385591Y-83111763D01*
X139292073Y-82966433D01*
X139149381Y-82868936D01*
X138980000Y-82834635D01*
X136480000Y-82834635D01*
X136321763Y-82864409D01*
X136176433Y-82957927D01*
X136078936Y-83100619D01*
X136044635Y-83270000D01*
X135630000Y-83270000D01*
X135630000Y-82677000D01*
X153981554Y-82677000D01*
X153823919Y-82834635D01*
X153823919Y-82834635D01*
G37*
X153823919Y-82834635D02*
X151880000Y-82834635D01*
X151721763Y-82864409D01*
X151576433Y-82957927D01*
X151478936Y-83100619D01*
X151444635Y-83270000D01*
X151444635Y-84370000D01*
X151474409Y-84528237D01*
X151567927Y-84673567D01*
X151710619Y-84771064D01*
X151880000Y-84805365D01*
X154380000Y-84805365D01*
X154396246Y-84802308D01*
X154363919Y-84834635D01*
X151880000Y-84834635D01*
X151721763Y-84864409D01*
X151576433Y-84957927D01*
X151478936Y-85100619D01*
X151444635Y-85270000D01*
X151444635Y-86370000D01*
X151474409Y-86528237D01*
X151567927Y-86673567D01*
X151710619Y-86771064D01*
X151880000Y-86805365D01*
X154380000Y-86805365D01*
X154538237Y-86775591D01*
X154668932Y-86691490D01*
X157283124Y-86691490D01*
X157452955Y-87101524D01*
X157843242Y-87529783D01*
X157969836Y-87589235D01*
X157874600Y-87589235D01*
X157716363Y-87619009D01*
X157571033Y-87712527D01*
X157473536Y-87855219D01*
X157439235Y-88024600D01*
X157439235Y-89724600D01*
X157469009Y-89882837D01*
X157562527Y-90028167D01*
X157705219Y-90125664D01*
X157874600Y-90159965D01*
X159574600Y-90159965D01*
X159732837Y-90130191D01*
X159878167Y-90036673D01*
X159975664Y-89893981D01*
X160009965Y-89724600D01*
X160009965Y-88024600D01*
X159980191Y-87866363D01*
X159886673Y-87721033D01*
X159743981Y-87623536D01*
X159574600Y-87589235D01*
X159479364Y-87589235D01*
X159605958Y-87529783D01*
X159996245Y-87101524D01*
X160166076Y-86691490D01*
X160044755Y-86461600D01*
X158851600Y-86461600D01*
X158851600Y-86481600D01*
X158597600Y-86481600D01*
X158597600Y-86461600D01*
X157404445Y-86461600D01*
X157283124Y-86691490D01*
X154668932Y-86691490D01*
X154683567Y-86682073D01*
X154781064Y-86539381D01*
X154815365Y-86370000D01*
X154815365Y-85944481D01*
X157652399Y-83107447D01*
X157519788Y-83305913D01*
X157422582Y-83794600D01*
X157519788Y-84283287D01*
X157796607Y-84697575D01*
X158204183Y-84969909D01*
X157843242Y-85139417D01*
X157452955Y-85567676D01*
X157283124Y-85977710D01*
X157404445Y-86207600D01*
X158597600Y-86207600D01*
X158597600Y-86187600D01*
X158851600Y-86187600D01*
X158851600Y-86207600D01*
X160044755Y-86207600D01*
X160166076Y-85977710D01*
X159996245Y-85567676D01*
X159605958Y-85139417D01*
X159245017Y-84969909D01*
X159652593Y-84697575D01*
X159887108Y-84346600D01*
X161340754Y-84346600D01*
X162084200Y-85090046D01*
X162084200Y-90677954D01*
X160883554Y-91878600D01*
X156697800Y-91878600D01*
X156876761Y-91699950D01*
X156987674Y-91432844D01*
X156987839Y-91243532D01*
X157175200Y-91280800D01*
X159936306Y-91280800D01*
X159962120Y-91343275D01*
X160166450Y-91547961D01*
X160433556Y-91658874D01*
X160722775Y-91659126D01*
X160990075Y-91548680D01*
X161194761Y-91344350D01*
X161305674Y-91077244D01*
X161305926Y-90788025D01*
X161195480Y-90520725D01*
X160991150Y-90316039D01*
X160724044Y-90205126D01*
X160517100Y-90204946D01*
X160375600Y-90176800D01*
X157403846Y-90176800D01*
X155660523Y-88433477D01*
X155481442Y-88313818D01*
X155270200Y-88271800D01*
X154815365Y-88271800D01*
X154815365Y-87270000D01*
X154785591Y-87111763D01*
X154692073Y-86966433D01*
X154549381Y-86868936D01*
X154380000Y-86834635D01*
X151880000Y-86834635D01*
X151721763Y-86864409D01*
X151576433Y-86957927D01*
X151478936Y-87100619D01*
X151444635Y-87270000D01*
X151444635Y-88271800D01*
X142417800Y-88271800D01*
X142206558Y-88313818D01*
X142027477Y-88433477D01*
X139371339Y-91089615D01*
X139292073Y-90966433D01*
X139149381Y-90868936D01*
X138980000Y-90834635D01*
X136480000Y-90834635D01*
X136321763Y-90864409D01*
X136176433Y-90957927D01*
X136078936Y-91100619D01*
X136044635Y-91270000D01*
X136044635Y-92370000D01*
X136074409Y-92528237D01*
X136167927Y-92673567D01*
X136310619Y-92771064D01*
X136480000Y-92805365D01*
X138980000Y-92805365D01*
X139138237Y-92775591D01*
X139283567Y-92682073D01*
X139381064Y-92539381D01*
X139414960Y-92372000D01*
X139421600Y-92372000D01*
X139632842Y-92329982D01*
X139811923Y-92210323D01*
X142646446Y-89375800D01*
X151444635Y-89375800D01*
X151444635Y-90278400D01*
X142417800Y-90278400D01*
X142206558Y-90320418D01*
X142027477Y-90440077D01*
X139373923Y-93093631D01*
X139292073Y-92966433D01*
X139149381Y-92868936D01*
X138980000Y-92834635D01*
X136480000Y-92834635D01*
X136321763Y-92864409D01*
X136176433Y-92957927D01*
X136078936Y-93100619D01*
X136044635Y-93270000D01*
X136044635Y-94370000D01*
X136074409Y-94528237D01*
X136167927Y-94673567D01*
X136310619Y-94771064D01*
X136480000Y-94805365D01*
X138980000Y-94805365D01*
X139138237Y-94775591D01*
X139283567Y-94682073D01*
X139381064Y-94539381D01*
X139414960Y-94372000D01*
X139428200Y-94372000D01*
X139639442Y-94329982D01*
X139818523Y-94210323D01*
X142646446Y-91382400D01*
X151444635Y-91382400D01*
X151444635Y-92330000D01*
X142697200Y-92330000D01*
X142503179Y-92368593D01*
X142410380Y-92430600D01*
X142338697Y-92478497D01*
X139504194Y-95313000D01*
X139415365Y-95313000D01*
X139415365Y-95270000D01*
X139385591Y-95111763D01*
X139292073Y-94966433D01*
X139149381Y-94868936D01*
X138980000Y-94834635D01*
X136480000Y-94834635D01*
X136321763Y-94864409D01*
X136176433Y-94957927D01*
X136078936Y-95100619D01*
X136044635Y-95270000D01*
X136044635Y-96370000D01*
X136074409Y-96528237D01*
X136167927Y-96673567D01*
X136310619Y-96771064D01*
X136480000Y-96805365D01*
X138980000Y-96805365D01*
X139138237Y-96775591D01*
X139283567Y-96682073D01*
X139381064Y-96539381D01*
X139415365Y-96370000D01*
X139415365Y-96327000D01*
X139714200Y-96327000D01*
X139908221Y-96288407D01*
X140072703Y-96178503D01*
X142907206Y-93344000D01*
X151444635Y-93344000D01*
X151444635Y-94370000D01*
X151474409Y-94528237D01*
X151567927Y-94673567D01*
X151710619Y-94771064D01*
X151880000Y-94805365D01*
X154380000Y-94805365D01*
X154538237Y-94775591D01*
X154683567Y-94682073D01*
X154781064Y-94539381D01*
X154815365Y-94370000D01*
X154815365Y-93861171D01*
X155499800Y-94545606D01*
X155499800Y-95986600D01*
X155538393Y-96180621D01*
X155601575Y-96275179D01*
X155648297Y-96345103D01*
X156188530Y-96885336D01*
X156148188Y-96945713D01*
X156050982Y-97434400D01*
X156148188Y-97923087D01*
X156425007Y-98337375D01*
X156839295Y-98614194D01*
X157292791Y-98704400D01*
X156839295Y-98794606D01*
X156425007Y-99071425D01*
X156274572Y-99296566D01*
X155523200Y-98545194D01*
X155523200Y-96469200D01*
X155484607Y-96275179D01*
X155374703Y-96110697D01*
X154815365Y-95551359D01*
X154815365Y-95270000D01*
X154785591Y-95111763D01*
X154692073Y-94966433D01*
X154549381Y-94868936D01*
X154380000Y-94834635D01*
X151880000Y-94834635D01*
X151721763Y-94864409D01*
X151576433Y-94957927D01*
X151478936Y-95100619D01*
X151444635Y-95270000D01*
X151444635Y-96370000D01*
X151474409Y-96528237D01*
X151567927Y-96673567D01*
X151602897Y-96697461D01*
X151520302Y-96731673D01*
X151341673Y-96910301D01*
X151245000Y-97143690D01*
X151245000Y-97534250D01*
X151403750Y-97693000D01*
X153003000Y-97693000D01*
X153003000Y-97673000D01*
X153257000Y-97673000D01*
X153257000Y-97693000D01*
X153277000Y-97693000D01*
X153277000Y-97947000D01*
X153257000Y-97947000D01*
X153257000Y-98846250D01*
X153415750Y-99005000D01*
X154506309Y-99005000D01*
X154567992Y-98979450D01*
X154585064Y-99005000D01*
X154657697Y-99113703D01*
X155876897Y-100332903D01*
X156041379Y-100442807D01*
X156148932Y-100464201D01*
X156425007Y-100877375D01*
X156839295Y-101154194D01*
X157292791Y-101244400D01*
X156839295Y-101334606D01*
X156425007Y-101611425D01*
X156148188Y-102025713D01*
X156050982Y-102514400D01*
X156148188Y-103003087D01*
X156425007Y-103417375D01*
X156839295Y-103694194D01*
X157327982Y-103791400D01*
X157378018Y-103791400D01*
X157866705Y-103694194D01*
X158280993Y-103417375D01*
X158408000Y-103227296D01*
X158408000Y-103490710D01*
X158504673Y-103724099D01*
X158683302Y-103902727D01*
X158916691Y-103999400D01*
X159607250Y-103999400D01*
X159766000Y-103840650D01*
X159766000Y-102641400D01*
X160020000Y-102641400D01*
X160020000Y-103840650D01*
X160178750Y-103999400D01*
X160869309Y-103999400D01*
X161102698Y-103902727D01*
X161281327Y-103724099D01*
X161378000Y-103490710D01*
X161378000Y-102800150D01*
X161219250Y-102641400D01*
X160020000Y-102641400D01*
X159766000Y-102641400D01*
X159746000Y-102641400D01*
X159746000Y-102387400D01*
X159766000Y-102387400D01*
X159766000Y-102367400D01*
X160020000Y-102367400D01*
X160020000Y-102387400D01*
X161219250Y-102387400D01*
X161378000Y-102228650D01*
X161378000Y-101538090D01*
X161281327Y-101304701D01*
X161102698Y-101126073D01*
X160869309Y-101029400D01*
X160593472Y-101029400D01*
X160820993Y-100877375D01*
X161097812Y-100463087D01*
X161195018Y-99974400D01*
X161097812Y-99485713D01*
X160820993Y-99071425D01*
X160406705Y-98794606D01*
X159953209Y-98704400D01*
X160406705Y-98614194D01*
X160820993Y-98337375D01*
X161097812Y-97923087D01*
X161195018Y-97434400D01*
X161097812Y-96945713D01*
X160820993Y-96531425D01*
X160406705Y-96254606D01*
X159953209Y-96164400D01*
X160406705Y-96074194D01*
X160820993Y-95797375D01*
X161097812Y-95383087D01*
X161195018Y-94894400D01*
X161097812Y-94405713D01*
X160820993Y-93991425D01*
X160406705Y-93714606D01*
X159918018Y-93617400D01*
X159867982Y-93617400D01*
X159379295Y-93714606D01*
X158965007Y-93991425D01*
X158688188Y-94405713D01*
X158623000Y-94733435D01*
X158557812Y-94405713D01*
X158280993Y-93991425D01*
X157866705Y-93714606D01*
X157378018Y-93617400D01*
X157327982Y-93617400D01*
X156839295Y-93714606D01*
X156425007Y-93991425D01*
X156399942Y-94028937D01*
X156365303Y-93977097D01*
X155370806Y-92982600D01*
X161112200Y-92982600D01*
X161323442Y-92940582D01*
X161502523Y-92820923D01*
X163026523Y-91296923D01*
X163074000Y-91225869D01*
X163074000Y-105162000D01*
X135630000Y-105162000D01*
X135630000Y-103226892D01*
X135718514Y-103226892D01*
X135964817Y-103751358D01*
X136393076Y-104141645D01*
X136803110Y-104311476D01*
X137033000Y-104190155D01*
X137033000Y-102997000D01*
X135839181Y-102997000D01*
X135718514Y-103226892D01*
X135630000Y-103226892D01*
X135630000Y-102513108D01*
X135718514Y-102513108D01*
X135839181Y-102743000D01*
X137033000Y-102743000D01*
X137033000Y-101549845D01*
X137287000Y-101549845D01*
X137287000Y-102743000D01*
X137307000Y-102743000D01*
X137307000Y-102997000D01*
X137287000Y-102997000D01*
X137287000Y-104190155D01*
X137516890Y-104311476D01*
X137926924Y-104141645D01*
X138355183Y-103751358D01*
X138414635Y-103624764D01*
X138414635Y-103720000D01*
X138444409Y-103878237D01*
X138537927Y-104023567D01*
X138680619Y-104121064D01*
X138850000Y-104155365D01*
X140550000Y-104155365D01*
X140708237Y-104125591D01*
X140853567Y-104032073D01*
X140951064Y-103889381D01*
X140985365Y-103720000D01*
X140985365Y-102020000D01*
X140955591Y-101861763D01*
X140862073Y-101716433D01*
X140719381Y-101618936D01*
X140550000Y-101584635D01*
X138850000Y-101584635D01*
X138691763Y-101614409D01*
X138546433Y-101707927D01*
X138448936Y-101850619D01*
X138414635Y-102020000D01*
X138414635Y-102115236D01*
X138355183Y-101988642D01*
X137926924Y-101598355D01*
X137516890Y-101428524D01*
X137287000Y-101549845D01*
X137033000Y-101549845D01*
X136803110Y-101428524D01*
X136393076Y-101598355D01*
X135964817Y-101988642D01*
X135718514Y-102513108D01*
X135630000Y-102513108D01*
X135630000Y-97270000D01*
X136044635Y-97270000D01*
X136044635Y-98370000D01*
X136074409Y-98528237D01*
X136167927Y-98673567D01*
X136310619Y-98771064D01*
X136480000Y-98805365D01*
X138980000Y-98805365D01*
X139138237Y-98775591D01*
X139283567Y-98682073D01*
X139381064Y-98539381D01*
X139415365Y-98370000D01*
X139415365Y-98351917D01*
X139434635Y-98348084D01*
X139434635Y-100770000D01*
X139464409Y-100928237D01*
X139557927Y-101073567D01*
X139700619Y-101171064D01*
X139870000Y-101205365D01*
X140970000Y-101205365D01*
X141128237Y-101175591D01*
X141273567Y-101082073D01*
X141371064Y-100939381D01*
X141405365Y-100770000D01*
X141405365Y-98270000D01*
X141434635Y-98270000D01*
X141434635Y-100770000D01*
X141464409Y-100928237D01*
X141557927Y-101073567D01*
X141700619Y-101171064D01*
X141870000Y-101205365D01*
X142970000Y-101205365D01*
X143128237Y-101175591D01*
X143273567Y-101082073D01*
X143371064Y-100939381D01*
X143405365Y-100770000D01*
X143405365Y-98270000D01*
X143434635Y-98270000D01*
X143434635Y-100770000D01*
X143464409Y-100928237D01*
X143557927Y-101073567D01*
X143700619Y-101171064D01*
X143870000Y-101205365D01*
X144970000Y-101205365D01*
X145128237Y-101175591D01*
X145273567Y-101082073D01*
X145371064Y-100939381D01*
X145405365Y-100770000D01*
X145405365Y-98270000D01*
X145434635Y-98270000D01*
X145434635Y-100770000D01*
X145464409Y-100928237D01*
X145557927Y-101073567D01*
X145571963Y-101083158D01*
X145513153Y-101224789D01*
X145512849Y-101573681D01*
X145646082Y-101896131D01*
X145892571Y-102143051D01*
X146214789Y-102276847D01*
X146563681Y-102277151D01*
X146886131Y-102143918D01*
X147133051Y-101897429D01*
X147266847Y-101575211D01*
X147267151Y-101226319D01*
X147221416Y-101115631D01*
X147273567Y-101082073D01*
X147371064Y-100939381D01*
X147405365Y-100770000D01*
X147405365Y-98270000D01*
X147434635Y-98270000D01*
X147434635Y-100770000D01*
X147464409Y-100928237D01*
X147557927Y-101073567D01*
X147700619Y-101171064D01*
X147870000Y-101205365D01*
X148970000Y-101205365D01*
X149128237Y-101175591D01*
X149273567Y-101082073D01*
X149371064Y-100939381D01*
X149405365Y-100770000D01*
X149405365Y-98270000D01*
X149434635Y-98270000D01*
X149434635Y-100770000D01*
X149464409Y-100928237D01*
X149557927Y-101073567D01*
X149700619Y-101171064D01*
X149870000Y-101205365D01*
X149921219Y-101205365D01*
X149913153Y-101224789D01*
X149912849Y-101573681D01*
X150046082Y-101896131D01*
X150292571Y-102143051D01*
X150614789Y-102276847D01*
X150963681Y-102277151D01*
X151286131Y-102143918D01*
X151533051Y-101897429D01*
X151666847Y-101575211D01*
X151667151Y-101226319D01*
X151533918Y-100903869D01*
X151404508Y-100774233D01*
X151405365Y-100770000D01*
X151405365Y-98793391D01*
X151520302Y-98908327D01*
X151753691Y-99005000D01*
X152844250Y-99005000D01*
X153003000Y-98846250D01*
X153003000Y-97947000D01*
X151403750Y-97947000D01*
X151322105Y-98028645D01*
X151282073Y-97966433D01*
X151139381Y-97868936D01*
X150970000Y-97834635D01*
X149870000Y-97834635D01*
X149711763Y-97864409D01*
X149566433Y-97957927D01*
X149468936Y-98100619D01*
X149434635Y-98270000D01*
X149405365Y-98270000D01*
X149375591Y-98111763D01*
X149282073Y-97966433D01*
X149139381Y-97868936D01*
X148970000Y-97834635D01*
X147870000Y-97834635D01*
X147711763Y-97864409D01*
X147566433Y-97957927D01*
X147468936Y-98100619D01*
X147434635Y-98270000D01*
X147405365Y-98270000D01*
X147375591Y-98111763D01*
X147282073Y-97966433D01*
X147139381Y-97868936D01*
X146970000Y-97834635D01*
X145870000Y-97834635D01*
X145711763Y-97864409D01*
X145566433Y-97957927D01*
X145468936Y-98100619D01*
X145434635Y-98270000D01*
X145405365Y-98270000D01*
X145375591Y-98111763D01*
X145282073Y-97966433D01*
X145139381Y-97868936D01*
X144970000Y-97834635D01*
X143870000Y-97834635D01*
X143711763Y-97864409D01*
X143566433Y-97957927D01*
X143468936Y-98100619D01*
X143434635Y-98270000D01*
X143405365Y-98270000D01*
X143375591Y-98111763D01*
X143282073Y-97966433D01*
X143139381Y-97868936D01*
X142970000Y-97834635D01*
X141870000Y-97834635D01*
X141711763Y-97864409D01*
X141566433Y-97957927D01*
X141468936Y-98100619D01*
X141434635Y-98270000D01*
X141405365Y-98270000D01*
X141375591Y-98111763D01*
X141282073Y-97966433D01*
X141139381Y-97868936D01*
X140970000Y-97834635D01*
X140080411Y-97834635D01*
X142722646Y-95192400D01*
X145573800Y-95192400D01*
X145637650Y-95256361D01*
X145904756Y-95367274D01*
X146193975Y-95367526D01*
X146461275Y-95257080D01*
X146665961Y-95052750D01*
X146776874Y-94785644D01*
X146777126Y-94496425D01*
X146666680Y-94229125D01*
X146462350Y-94024439D01*
X146195244Y-93913526D01*
X145906025Y-93913274D01*
X145638725Y-94023720D01*
X145573932Y-94088400D01*
X142494000Y-94088400D01*
X142282759Y-94130418D01*
X142163173Y-94210323D01*
X142103677Y-94250077D01*
X139329366Y-97024388D01*
X139292073Y-96966433D01*
X139149381Y-96868936D01*
X138980000Y-96834635D01*
X136480000Y-96834635D01*
X136321763Y-96864409D01*
X136176433Y-96957927D01*
X136078936Y-97100619D01*
X136044635Y-97270000D01*
X135630000Y-97270000D01*
X135630000Y-89270000D01*
X136044635Y-89270000D01*
X136044635Y-90370000D01*
X136074409Y-90528237D01*
X136167927Y-90673567D01*
X136310619Y-90771064D01*
X136480000Y-90805365D01*
X138980000Y-90805365D01*
X139138237Y-90775591D01*
X139283567Y-90682073D01*
X139381064Y-90539381D01*
X139390948Y-90490575D01*
X139564575Y-90490726D01*
X139831875Y-90380280D01*
X140036561Y-90175950D01*
X140147474Y-89908844D01*
X140147726Y-89619625D01*
X140037280Y-89352325D01*
X139832950Y-89147639D01*
X139565844Y-89036726D01*
X139337177Y-89036527D01*
X139292073Y-88966433D01*
X139149381Y-88868936D01*
X138980000Y-88834635D01*
X136480000Y-88834635D01*
X136321763Y-88864409D01*
X136176433Y-88957927D01*
X136078936Y-89100619D01*
X136044635Y-89270000D01*
X135630000Y-89270000D01*
X135630000Y-87270000D01*
X136044635Y-87270000D01*
X136044635Y-88370000D01*
X136074409Y-88528237D01*
X136167927Y-88673567D01*
X136310619Y-88771064D01*
X136480000Y-88805365D01*
X138980000Y-88805365D01*
X139138237Y-88775591D01*
X139283567Y-88682073D01*
X139381064Y-88539381D01*
X139415365Y-88370000D01*
X139415365Y-87270000D01*
X139385591Y-87111763D01*
X139292073Y-86966433D01*
X139149381Y-86868936D01*
X138980000Y-86834635D01*
X136480000Y-86834635D01*
X136321763Y-86864409D01*
X136176433Y-86957927D01*
X136078936Y-87100619D01*
X136044635Y-87270000D01*
X135630000Y-87270000D01*
X135630000Y-85270000D01*
X136044635Y-85270000D01*
X136044635Y-86370000D01*
X136074409Y-86528237D01*
X136167927Y-86673567D01*
X136310619Y-86771064D01*
X136480000Y-86805365D01*
X138980000Y-86805365D01*
X139138237Y-86775591D01*
X139283567Y-86682073D01*
X139381064Y-86539381D01*
X139415365Y-86370000D01*
X139415365Y-85270000D01*
X139385591Y-85111763D01*
X139292073Y-84966433D01*
X139149381Y-84868936D01*
X138980000Y-84834635D01*
X136480000Y-84834635D01*
X136321763Y-84864409D01*
X136176433Y-84957927D01*
X136078936Y-85100619D01*
X136044635Y-85270000D01*
X135630000Y-85270000D01*
X135630000Y-83270000D01*
X136044635Y-83270000D01*
X136044635Y-84370000D01*
X136074409Y-84528237D01*
X136167927Y-84673567D01*
X136310619Y-84771064D01*
X136480000Y-84805365D01*
X138980000Y-84805365D01*
X139138237Y-84775591D01*
X139283567Y-84682073D01*
X139381064Y-84539381D01*
X139415365Y-84370000D01*
X139415365Y-83270000D01*
X139385591Y-83111763D01*
X139292073Y-82966433D01*
X139149381Y-82868936D01*
X138980000Y-82834635D01*
X136480000Y-82834635D01*
X136321763Y-82864409D01*
X136176433Y-82957927D01*
X136078936Y-83100619D01*
X136044635Y-83270000D01*
X135630000Y-83270000D01*
X135630000Y-82677000D01*
X153981554Y-82677000D01*
X153823919Y-82834635D01*
M02*
