G04 #@! TF.FileFunction,Legend,Top*
%FSLAX46Y46*%
G04 Gerber Fmt 4.6, Leading zero omitted, Abs format (unit mm)*
G04 Created by KiCad (PCBNEW 4.0.7-e2-6376~58~ubuntu17.04.1) date Tue Sep  5 17:35:11 2017*
%MOMM*%
%LPD*%
G01*
G04 APERTURE LIST*
%ADD10C,0.100000*%
%ADD11C,0.150000*%
%ADD12C,0.152400*%
%ADD13C,0.120000*%
G04 APERTURE END LIST*
D10*
X154818590Y-102692151D02*
X154818590Y-102382628D01*
X155009067Y-102549294D01*
X155009067Y-102477866D01*
X155032876Y-102430247D01*
X155056686Y-102406437D01*
X155104305Y-102382628D01*
X155223352Y-102382628D01*
X155270971Y-102406437D01*
X155294781Y-102430247D01*
X155318590Y-102477866D01*
X155318590Y-102620723D01*
X155294781Y-102668342D01*
X155270971Y-102692151D01*
X154818590Y-102239771D02*
X155318590Y-102073104D01*
X154818590Y-101906438D01*
X155220171Y-100091038D02*
X155243981Y-100114848D01*
X155267790Y-100186276D01*
X155267790Y-100233895D01*
X155243981Y-100305324D01*
X155196362Y-100352943D01*
X155148743Y-100376752D01*
X155053505Y-100400562D01*
X154982076Y-100400562D01*
X154886838Y-100376752D01*
X154839219Y-100352943D01*
X154791600Y-100305324D01*
X154767790Y-100233895D01*
X154767790Y-100186276D01*
X154791600Y-100114848D01*
X154815410Y-100091038D01*
X155243981Y-99900562D02*
X155267790Y-99829133D01*
X155267790Y-99710086D01*
X155243981Y-99662467D01*
X155220171Y-99638657D01*
X155172552Y-99614848D01*
X155124933Y-99614848D01*
X155077314Y-99638657D01*
X155053505Y-99662467D01*
X155029695Y-99710086D01*
X155005886Y-99805324D01*
X154982076Y-99852943D01*
X154958267Y-99876752D01*
X154910648Y-99900562D01*
X154863029Y-99900562D01*
X154815410Y-99876752D01*
X154791600Y-99852943D01*
X154767790Y-99805324D01*
X154767790Y-99686276D01*
X154791600Y-99614848D01*
X155267790Y-99400562D02*
X154767790Y-99400562D01*
X155267790Y-99114848D01*
X154767790Y-99114848D01*
X155293190Y-98067714D02*
X154793190Y-98067714D01*
X155150333Y-97901048D01*
X154793190Y-97734381D01*
X155293190Y-97734381D01*
X154793190Y-97401047D02*
X154793190Y-97305809D01*
X154817000Y-97258190D01*
X154864619Y-97210571D01*
X154959857Y-97186762D01*
X155126524Y-97186762D01*
X155221762Y-97210571D01*
X155269381Y-97258190D01*
X155293190Y-97305809D01*
X155293190Y-97401047D01*
X155269381Y-97448666D01*
X155221762Y-97496285D01*
X155126524Y-97520095D01*
X154959857Y-97520095D01*
X154864619Y-97496285D01*
X154817000Y-97448666D01*
X154793190Y-97401047D01*
X155269381Y-96996285D02*
X155293190Y-96924856D01*
X155293190Y-96805809D01*
X155269381Y-96758190D01*
X155245571Y-96734380D01*
X155197952Y-96710571D01*
X155150333Y-96710571D01*
X155102714Y-96734380D01*
X155078905Y-96758190D01*
X155055095Y-96805809D01*
X155031286Y-96901047D01*
X155007476Y-96948666D01*
X154983667Y-96972475D01*
X154936048Y-96996285D01*
X154888429Y-96996285D01*
X154840810Y-96972475D01*
X154817000Y-96948666D01*
X154793190Y-96901047D01*
X154793190Y-96781999D01*
X154817000Y-96710571D01*
X155293190Y-96496285D02*
X154793190Y-96496285D01*
X162582990Y-95527714D02*
X162082990Y-95527714D01*
X162440133Y-95361048D01*
X162082990Y-95194381D01*
X162582990Y-95194381D01*
X162582990Y-94956285D02*
X162082990Y-94956285D01*
X162559181Y-94742000D02*
X162582990Y-94670571D01*
X162582990Y-94551524D01*
X162559181Y-94503905D01*
X162535371Y-94480095D01*
X162487752Y-94456286D01*
X162440133Y-94456286D01*
X162392514Y-94480095D01*
X162368705Y-94503905D01*
X162344895Y-94551524D01*
X162321086Y-94646762D01*
X162297276Y-94694381D01*
X162273467Y-94718190D01*
X162225848Y-94742000D01*
X162178229Y-94742000D01*
X162130610Y-94718190D01*
X162106800Y-94694381D01*
X162082990Y-94646762D01*
X162082990Y-94527714D01*
X162106800Y-94456286D01*
X162082990Y-94146762D02*
X162082990Y-94051524D01*
X162106800Y-94003905D01*
X162154419Y-93956286D01*
X162249657Y-93932477D01*
X162416324Y-93932477D01*
X162511562Y-93956286D01*
X162559181Y-94003905D01*
X162582990Y-94051524D01*
X162582990Y-94146762D01*
X162559181Y-94194381D01*
X162511562Y-94242000D01*
X162416324Y-94265810D01*
X162249657Y-94265810D01*
X162154419Y-94242000D01*
X162106800Y-94194381D01*
X162082990Y-94146762D01*
X162609981Y-98128057D02*
X162633790Y-98056628D01*
X162633790Y-97937581D01*
X162609981Y-97889962D01*
X162586171Y-97866152D01*
X162538552Y-97842343D01*
X162490933Y-97842343D01*
X162443314Y-97866152D01*
X162419505Y-97889962D01*
X162395695Y-97937581D01*
X162371886Y-98032819D01*
X162348076Y-98080438D01*
X162324267Y-98104247D01*
X162276648Y-98128057D01*
X162229029Y-98128057D01*
X162181410Y-98104247D01*
X162157600Y-98080438D01*
X162133790Y-98032819D01*
X162133790Y-97913771D01*
X162157600Y-97842343D01*
X162586171Y-97342343D02*
X162609981Y-97366153D01*
X162633790Y-97437581D01*
X162633790Y-97485200D01*
X162609981Y-97556629D01*
X162562362Y-97604248D01*
X162514743Y-97628057D01*
X162419505Y-97651867D01*
X162348076Y-97651867D01*
X162252838Y-97628057D01*
X162205219Y-97604248D01*
X162157600Y-97556629D01*
X162133790Y-97485200D01*
X162133790Y-97437581D01*
X162157600Y-97366153D01*
X162181410Y-97342343D01*
X162633790Y-97128057D02*
X162133790Y-97128057D01*
X162633790Y-96842343D02*
X162348076Y-97056629D01*
X162133790Y-96842343D02*
X162419505Y-97128057D01*
X162586171Y-100319638D02*
X162609981Y-100343448D01*
X162633790Y-100414876D01*
X162633790Y-100462495D01*
X162609981Y-100533924D01*
X162562362Y-100581543D01*
X162514743Y-100605352D01*
X162419505Y-100629162D01*
X162348076Y-100629162D01*
X162252838Y-100605352D01*
X162205219Y-100581543D01*
X162157600Y-100533924D01*
X162133790Y-100462495D01*
X162133790Y-100414876D01*
X162157600Y-100343448D01*
X162181410Y-100319638D01*
X162609981Y-100129162D02*
X162633790Y-100057733D01*
X162633790Y-99938686D01*
X162609981Y-99891067D01*
X162586171Y-99867257D01*
X162538552Y-99843448D01*
X162490933Y-99843448D01*
X162443314Y-99867257D01*
X162419505Y-99891067D01*
X162395695Y-99938686D01*
X162371886Y-100033924D01*
X162348076Y-100081543D01*
X162324267Y-100105352D01*
X162276648Y-100129162D01*
X162229029Y-100129162D01*
X162181410Y-100105352D01*
X162157600Y-100081543D01*
X162133790Y-100033924D01*
X162133790Y-99914876D01*
X162157600Y-99843448D01*
X162633790Y-99629162D02*
X162133790Y-99629162D01*
X162633790Y-99343448D01*
X162133790Y-99343448D01*
X162183000Y-102742953D02*
X162159190Y-102790572D01*
X162159190Y-102862000D01*
X162183000Y-102933429D01*
X162230619Y-102981048D01*
X162278238Y-103004857D01*
X162373476Y-103028667D01*
X162444905Y-103028667D01*
X162540143Y-103004857D01*
X162587762Y-102981048D01*
X162635381Y-102933429D01*
X162659190Y-102862000D01*
X162659190Y-102814381D01*
X162635381Y-102742953D01*
X162611571Y-102719143D01*
X162444905Y-102719143D01*
X162444905Y-102814381D01*
X162659190Y-102504857D02*
X162159190Y-102504857D01*
X162659190Y-102219143D01*
X162159190Y-102219143D01*
X162659190Y-101981047D02*
X162159190Y-101981047D01*
X162159190Y-101862000D01*
X162183000Y-101790571D01*
X162230619Y-101742952D01*
X162278238Y-101719143D01*
X162373476Y-101695333D01*
X162444905Y-101695333D01*
X162540143Y-101719143D01*
X162587762Y-101742952D01*
X162635381Y-101790571D01*
X162659190Y-101862000D01*
X162659190Y-101981047D01*
D11*
X136448896Y-100084000D02*
X136353658Y-100036381D01*
X136210801Y-100036381D01*
X136067943Y-100084000D01*
X135972705Y-100179238D01*
X135925086Y-100274476D01*
X135877467Y-100464952D01*
X135877467Y-100607810D01*
X135925086Y-100798286D01*
X135972705Y-100893524D01*
X136067943Y-100988762D01*
X136210801Y-101036381D01*
X136306039Y-101036381D01*
X136448896Y-100988762D01*
X136496515Y-100941143D01*
X136496515Y-100607810D01*
X136306039Y-100607810D01*
X136925086Y-101036381D02*
X136925086Y-100036381D01*
X137496515Y-101036381D01*
X137496515Y-100036381D01*
X137972705Y-101036381D02*
X137972705Y-100036381D01*
X138210800Y-100036381D01*
X138353658Y-100084000D01*
X138448896Y-100179238D01*
X138496515Y-100274476D01*
X138544134Y-100464952D01*
X138544134Y-100607810D01*
X138496515Y-100798286D01*
X138448896Y-100893524D01*
X138353658Y-100988762D01*
X138210800Y-101036381D01*
X137972705Y-101036381D01*
X141870181Y-103035076D02*
X141870181Y-103511267D01*
X142346371Y-103558886D01*
X142298752Y-103511267D01*
X142251133Y-103416029D01*
X142251133Y-103177933D01*
X142298752Y-103082695D01*
X142346371Y-103035076D01*
X142441610Y-102987457D01*
X142679705Y-102987457D01*
X142774943Y-103035076D01*
X142822562Y-103082695D01*
X142870181Y-103177933D01*
X142870181Y-103416029D01*
X142822562Y-103511267D01*
X142774943Y-103558886D01*
X141870181Y-102701743D02*
X142870181Y-102368410D01*
X141870181Y-102035076D01*
X160985295Y-88377781D02*
X161604343Y-88377781D01*
X161271009Y-88758733D01*
X161413867Y-88758733D01*
X161509105Y-88806352D01*
X161556724Y-88853971D01*
X161604343Y-88949210D01*
X161604343Y-89187305D01*
X161556724Y-89282543D01*
X161509105Y-89330162D01*
X161413867Y-89377781D01*
X161128152Y-89377781D01*
X161032914Y-89330162D01*
X160985295Y-89282543D01*
X161890057Y-88377781D02*
X162223390Y-89377781D01*
X162556724Y-88377781D01*
X161061495Y-78243181D02*
X161632924Y-78243181D01*
X161347209Y-79243181D02*
X161347209Y-78243181D01*
X161871019Y-78243181D02*
X162537686Y-79243181D01*
X162537686Y-78243181D02*
X161871019Y-79243181D01*
X161605934Y-81681581D02*
X161272600Y-81205390D01*
X161034505Y-81681581D02*
X161034505Y-80681581D01*
X161415458Y-80681581D01*
X161510696Y-80729200D01*
X161558315Y-80776819D01*
X161605934Y-80872057D01*
X161605934Y-81014914D01*
X161558315Y-81110152D01*
X161510696Y-81157771D01*
X161415458Y-81205390D01*
X161034505Y-81205390D01*
X161939267Y-80681581D02*
X162605934Y-81681581D01*
X162605934Y-80681581D02*
X161939267Y-81681581D01*
X160772600Y-84272381D02*
X160772600Y-83272381D01*
X161439266Y-83272381D02*
X161629743Y-83272381D01*
X161724981Y-83320000D01*
X161820219Y-83415238D01*
X161867838Y-83605714D01*
X161867838Y-83939048D01*
X161820219Y-84129524D01*
X161724981Y-84224762D01*
X161629743Y-84272381D01*
X161439266Y-84272381D01*
X161344028Y-84224762D01*
X161248790Y-84129524D01*
X161201171Y-83939048D01*
X161201171Y-83605714D01*
X161248790Y-83415238D01*
X161344028Y-83320000D01*
X161439266Y-83272381D01*
X162486885Y-83272381D02*
X162582124Y-83272381D01*
X162677362Y-83320000D01*
X162724981Y-83367619D01*
X162772600Y-83462857D01*
X162820219Y-83653333D01*
X162820219Y-83891429D01*
X162772600Y-84081905D01*
X162724981Y-84177143D01*
X162677362Y-84224762D01*
X162582124Y-84272381D01*
X162486885Y-84272381D01*
X162391647Y-84224762D01*
X162344028Y-84177143D01*
X162296409Y-84081905D01*
X162248790Y-83891429D01*
X162248790Y-83653333D01*
X162296409Y-83462857D01*
X162344028Y-83367619D01*
X162391647Y-83320000D01*
X162486885Y-83272381D01*
X155590905Y-83370800D02*
X155495667Y-83323181D01*
X155352810Y-83323181D01*
X155209952Y-83370800D01*
X155114714Y-83466038D01*
X155067095Y-83561276D01*
X155019476Y-83751752D01*
X155019476Y-83894610D01*
X155067095Y-84085086D01*
X155114714Y-84180324D01*
X155209952Y-84275562D01*
X155352810Y-84323181D01*
X155448048Y-84323181D01*
X155590905Y-84275562D01*
X155638524Y-84227943D01*
X155638524Y-83894610D01*
X155448048Y-83894610D01*
X156067095Y-84323181D02*
X156067095Y-83323181D01*
X156448048Y-83323181D01*
X156543286Y-83370800D01*
X156590905Y-83418419D01*
X156638524Y-83513657D01*
X156638524Y-83656514D01*
X156590905Y-83751752D01*
X156543286Y-83799371D01*
X156448048Y-83846990D01*
X156067095Y-83846990D01*
X161290096Y-85961600D02*
X161194858Y-85913981D01*
X161052001Y-85913981D01*
X160909143Y-85961600D01*
X160813905Y-86056838D01*
X160766286Y-86152076D01*
X160718667Y-86342552D01*
X160718667Y-86485410D01*
X160766286Y-86675886D01*
X160813905Y-86771124D01*
X160909143Y-86866362D01*
X161052001Y-86913981D01*
X161147239Y-86913981D01*
X161290096Y-86866362D01*
X161337715Y-86818743D01*
X161337715Y-86485410D01*
X161147239Y-86485410D01*
X161766286Y-86913981D02*
X161766286Y-85913981D01*
X162337715Y-86913981D01*
X162337715Y-85913981D01*
X162813905Y-86913981D02*
X162813905Y-85913981D01*
X163052000Y-85913981D01*
X163194858Y-85961600D01*
X163290096Y-86056838D01*
X163337715Y-86152076D01*
X163385334Y-86342552D01*
X163385334Y-86485410D01*
X163337715Y-86675886D01*
X163290096Y-86771124D01*
X163194858Y-86866362D01*
X163052000Y-86913981D01*
X162813905Y-86913981D01*
D12*
X137414000Y-98679000D02*
X137414000Y-99441000D01*
X137414000Y-99441000D02*
X153416000Y-99441000D01*
X153416000Y-99441000D02*
X153416000Y-98679000D01*
D13*
X161223000Y-93564400D02*
X156023000Y-93564400D01*
X161223000Y-101244400D02*
X161223000Y-93564400D01*
X156023000Y-103844400D02*
X156023000Y-93564400D01*
X161223000Y-101244400D02*
X158623000Y-101244400D01*
X158623000Y-101244400D02*
X158623000Y-103844400D01*
X158623000Y-103844400D02*
X156023000Y-103844400D01*
X161223000Y-102514400D02*
X161223000Y-103844400D01*
X161223000Y-103844400D02*
X159893000Y-103844400D01*
X160054600Y-77384600D02*
X157394600Y-77384600D01*
X160054600Y-87604600D02*
X160054600Y-77384600D01*
X157394600Y-87604600D02*
X157394600Y-77384600D01*
X160054600Y-87604600D02*
X157394600Y-87604600D01*
X160054600Y-88874600D02*
X160054600Y-90204600D01*
X160054600Y-90204600D02*
X158724600Y-90204600D01*
X135830000Y-101540000D02*
X135830000Y-104200000D01*
X138430000Y-101540000D02*
X135830000Y-101540000D01*
X138430000Y-104200000D02*
X135830000Y-104200000D01*
X138430000Y-101540000D02*
X138430000Y-104200000D01*
X139700000Y-101540000D02*
X141030000Y-101540000D01*
X141030000Y-101540000D02*
X141030000Y-102870000D01*
D11*
X146772381Y-90931905D02*
X147581905Y-90931905D01*
X147677143Y-90884286D01*
X147724762Y-90836667D01*
X147772381Y-90741429D01*
X147772381Y-90550952D01*
X147724762Y-90455714D01*
X147677143Y-90408095D01*
X147581905Y-90360476D01*
X146772381Y-90360476D01*
X146867619Y-89931905D02*
X146820000Y-89884286D01*
X146772381Y-89789048D01*
X146772381Y-89550952D01*
X146820000Y-89455714D01*
X146867619Y-89408095D01*
X146962857Y-89360476D01*
X147058095Y-89360476D01*
X147200952Y-89408095D01*
X147772381Y-89979524D01*
X147772381Y-89360476D01*
X158289667Y-104296781D02*
X158289667Y-105011067D01*
X158242047Y-105153924D01*
X158146809Y-105249162D01*
X158003952Y-105296781D01*
X157908714Y-105296781D01*
X159289667Y-105296781D02*
X158718238Y-105296781D01*
X159003952Y-105296781D02*
X159003952Y-104296781D01*
X158908714Y-104439638D01*
X158813476Y-104534876D01*
X158718238Y-104582495D01*
X158391267Y-90656981D02*
X158391267Y-91371267D01*
X158343647Y-91514124D01*
X158248409Y-91609362D01*
X158105552Y-91656981D01*
X158010314Y-91656981D01*
X158819838Y-90752219D02*
X158867457Y-90704600D01*
X158962695Y-90656981D01*
X159200791Y-90656981D01*
X159296029Y-90704600D01*
X159343648Y-90752219D01*
X159391267Y-90847457D01*
X159391267Y-90942695D01*
X159343648Y-91085552D01*
X158772219Y-91656981D01*
X159391267Y-91656981D01*
X138644381Y-107013333D02*
X139358667Y-107013333D01*
X139501524Y-107060953D01*
X139596762Y-107156191D01*
X139644381Y-107299048D01*
X139644381Y-107394286D01*
X138977714Y-106108571D02*
X139644381Y-106108571D01*
X138596762Y-106346667D02*
X139311048Y-106584762D01*
X139311048Y-105965714D01*
M02*
